<svg width="449" height="205" viewBox="0 0 449 205" fill="none" xmlns="http://www.w3.org/2000/svg">
<path d="M56.9697 202.054L56.1992 201.88C64.7906 163.595 86.3814 128.828 116.994 103.985C140.139 85.2314 167.666 72.6891 196.983 67.5387C226.3 62.3884 256.443 64.7994 284.573 74.5449C312.704 84.2903 337.897 101.05 357.779 123.244C377.662 145.439 391.58 172.34 398.223 201.413L397.454 201.588C379.267 121.572 309.283 65.6878 227.264 65.6878C146.32 65.6878 74.7012 123.038 56.9697 202.054Z" fill="#3F3D56"/>
<path d="M355.264 108.511C367.11 108.511 376.713 98.8879 376.713 87.0176C376.713 75.1474 367.11 65.5246 355.264 65.5246C343.418 65.5246 333.815 75.1474 333.815 87.0176C333.815 98.8879 343.418 108.511 355.264 108.511Z" fill="#FF6584"/>
<path d="M347.116 172.948H346.326V204.209H347.116V172.948Z" fill="#3F3D56"/>
<path d="M354.405 176.931C354.455 187.863 346.78 196.76 346.78 196.76C346.78 196.76 339.024 187.934 338.974 177.003C338.923 166.071 346.598 157.174 346.598 157.174C346.598 157.174 354.355 166 354.405 176.931Z" fill="#0F375A"/>
<path opacity="0.1" d="M354.405 176.931C354.455 187.863 346.78 196.76 346.78 196.76C346.78 196.76 339.024 187.934 338.974 177.003C338.923 166.071 346.598 157.174 346.598 157.174C346.598 157.174 354.355 166 354.405 176.931Z" fill="black"/>
<path opacity="0.4" d="M197.853 110.795C204.668 110.795 210.193 105.259 210.193 98.4296C210.193 91.6006 204.668 86.0645 197.853 86.0645C191.038 86.0645 185.513 91.6006 185.513 98.4296C185.513 105.259 191.038 110.795 197.853 110.795Z" fill="#0F375A"/>
<path opacity="0.4" d="M175.015 113.009C179.796 113.009 183.671 109.126 183.671 104.335C183.671 99.5448 179.796 95.6613 175.015 95.6613C170.234 95.6613 166.359 99.5448 166.359 104.335C166.359 109.126 170.234 113.009 175.015 113.009Z" fill="#0F375A"/>
<path opacity="0.4" d="M82.2139 137.939C86.9946 137.939 90.8701 134.056 90.8701 129.265C90.8701 124.475 86.9946 120.591 82.2139 120.591C77.4331 120.591 73.5576 124.475 73.5576 129.265C73.5576 134.056 77.4331 137.939 82.2139 137.939Z" fill="#0F375A"/>
<path opacity="0.4" d="M338.157 109.778C344.972 109.778 350.496 104.241 350.496 97.4124C350.496 90.5833 344.972 85.0473 338.157 85.0473C331.342 85.0473 325.817 90.5833 325.817 97.4124C325.817 104.241 331.342 109.778 338.157 109.778Z" fill="#0F375A"/>
<path d="M22.3634 200.733C23.0323 203.21 25.3236 204.745 25.3236 204.745C25.3236 204.745 26.5303 202.262 25.8613 199.784C25.1924 197.307 22.9011 195.772 22.9011 195.772C22.9011 195.772 21.6944 198.255 22.3634 200.733Z" fill="#3F3D56"/>
<path d="M23.3463 200.2C25.1819 201.991 25.4061 204.743 25.4061 204.743C25.4061 204.743 22.6542 204.592 20.8187 202.802C18.9831 201.011 18.7589 198.259 18.7589 198.259C18.7589 198.259 21.5107 198.41 23.3463 200.2Z" fill="#0F375A"/>
<path d="M264.041 200.733C264.71 203.21 267.002 204.745 267.002 204.745C267.002 204.745 268.208 202.262 267.539 199.784C266.871 197.307 264.579 195.772 264.579 195.772C264.579 195.772 263.373 198.255 264.041 200.733Z" fill="#3F3D56"/>
<path d="M265.024 200.2C266.86 201.991 267.084 204.743 267.084 204.743C267.084 204.743 264.332 204.592 262.497 202.802C260.661 201.011 260.437 198.259 260.437 198.259C260.437 198.259 263.189 198.41 265.024 200.2Z" fill="#0F375A"/>
<path d="M26.9072 182.107L25.2735 179.378L40.5222 166.281H79.7332V170.101L65.5737 185.381L49.2356 188.655L26.9072 182.107Z" fill="#3F3D56"/>
<path d="M86.4829 173.967V165.429H81.3492V168.121L79.7333 166.281L66.6629 179.378L64.4842 181.561L61.7614 192.476L66.6629 204.481H91.7141V179.924L86.4829 173.967Z" fill="#CCCCCC"/>
<path d="M66.6628 179.378H25.2735V204.481H66.6628V179.378Z" fill="#F2F2F2"/>
<path d="M60.9445 187.291H52.231V194.931H60.9445V187.291Z" fill="#3F3D56"/>
<path d="M48.6911 187.018H41.0668V204.481H48.6911V187.018Z" fill="#CCCCCC"/>
<path d="M32.3533 189.747V187.018H29.0859V189.747H32.0808H32.3533Z" fill="#3F3D56"/>
<path d="M32.0808 191.929H29.0859V194.658H32.3533V191.929H32.0808Z" fill="#3F3D56"/>
<path d="M37.7992 187.018H34.5316V189.747H37.7992V187.018Z" fill="#3F3D56"/>
<path d="M37.7992 191.93H34.5316V194.658H37.7992V191.93Z" fill="#3F3D56"/>
<path d="M78.3716 190.02V187.291H75.1038V190.02H78.0991H78.3716Z" fill="#3F3D56"/>
<path d="M78.0991 192.203H75.1038V194.931H78.3716V192.203H78.0991Z" fill="#3F3D56"/>
<path d="M83.8176 187.291H80.55V190.02H83.8176V187.291Z" fill="#3F3D56"/>
<path d="M83.8176 192.203H80.55V194.931H83.8176V192.203Z" fill="#3F3D56"/>
<path d="M184.472 182.107L182.838 179.378L198.087 166.281H237.298V170.101L223.138 185.381L206.8 188.655L184.472 182.107Z" fill="#3F3D56"/>
<path d="M244.048 173.967V165.429H238.914V168.121L237.298 166.281L224.228 179.378L222.049 181.561L219.326 192.476L224.228 204.481H249.279V179.924L244.048 173.967Z" fill="#CCCCCC"/>
<path d="M224.227 179.378H182.838V204.481H224.227V179.378Z" fill="#F2F2F2"/>
<path d="M218.509 187.291H209.796V194.931H218.509V187.291Z" fill="#3F3D56"/>
<path d="M206.256 187.018H198.631V204.481H206.256V187.018Z" fill="#CCCCCC"/>
<path d="M189.918 189.747V187.018H186.651V189.747H189.645H189.918Z" fill="#3F3D56"/>
<path d="M189.645 191.929H186.651V194.658H189.918V191.929H189.645Z" fill="#3F3D56"/>
<path d="M195.364 187.018H192.096V189.747H195.364V187.018Z" fill="#3F3D56"/>
<path d="M195.364 191.93H192.096V194.658H195.364V191.93Z" fill="#3F3D56"/>
<path d="M235.936 190.02V187.291H232.668V190.02H235.664H235.936Z" fill="#3F3D56"/>
<path d="M235.664 192.203H232.668V194.931H235.936V192.203H235.664Z" fill="#3F3D56"/>
<path d="M241.382 187.291H238.115V190.02H241.382V187.291Z" fill="#3F3D56"/>
<path d="M241.382 192.203H238.115V194.931H241.382V192.203Z" fill="#3F3D56"/>
<path d="M110.775 136.267L108.052 134.084L123.301 120.441H161.967V132.447L136.916 149.364L110.775 136.267Z" fill="#3F3D56"/>
<path d="M169.017 128.094V120.714H163.883V122.521L161.967 120.441L149.441 134.084L144.54 137.358L136.94 192.996L148.401 204.481H175.037V134.63L169.017 128.094Z" fill="#CCCCCC"/>
<path d="M149.441 134.084H108.052V204.481H149.441V134.084Z" fill="#F2F2F2"/>
<path d="M131.742 187.291H124.118V204.481H131.742V187.291Z" fill="#CCCCCC"/>
<path d="M115.949 192.203V189.474H112.681V192.203H115.677H115.949Z" fill="#3F3D56"/>
<path d="M115.677 194.385H112.681V197.114H115.949V194.385H115.677Z" fill="#3F3D56"/>
<path d="M121.395 189.474H118.127V192.203H121.395V189.474Z" fill="#3F3D56"/>
<path d="M121.395 194.385H118.127V197.114H121.395V194.385Z" fill="#3F3D56"/>
<path d="M138.277 192.203V189.474H135.01V192.203H138.005H138.277Z" fill="#3F3D56"/>
<path d="M138.005 194.385H135.01V197.114H138.277V194.385H138.005Z" fill="#3F3D56"/>
<path d="M143.723 189.474H140.456V192.203H143.723V189.474Z" fill="#3F3D56"/>
<path d="M143.723 194.385H140.456V197.114H143.723V194.385Z" fill="#3F3D56"/>
<path d="M161.15 137.631V134.903H157.883V137.631H160.878H161.15Z" fill="#3F3D56"/>
<path d="M160.878 139.814H157.883V142.543H161.15V139.814H160.878Z" fill="#3F3D56"/>
<path d="M166.596 134.903H163.328V137.631H166.596V134.903Z" fill="#3F3D56"/>
<path d="M166.596 139.814H163.328V142.543H166.596V139.814Z" fill="#3F3D56"/>
<path d="M161.15 152.911V150.182H157.883V152.911H160.878H161.15Z" fill="#3F3D56"/>
<path d="M160.878 155.094H157.883V157.822H161.15V155.094H160.878Z" fill="#3F3D56"/>
<path d="M166.596 150.183H163.328V152.911H166.596V150.183Z" fill="#3F3D56"/>
<path d="M166.596 155.094H163.328V157.822H166.596V155.094Z" fill="#3F3D56"/>
<path d="M161.15 168.191V165.462H157.883V168.191H160.878H161.15Z" fill="#3F3D56"/>
<path d="M160.878 170.374H157.883V173.102H161.15V170.374H160.878Z" fill="#3F3D56"/>
<path d="M166.596 165.463H163.328V168.191H166.596V165.463Z" fill="#3F3D56"/>
<path d="M166.596 170.374H163.328V173.102H166.596V170.374Z" fill="#3F3D56"/>
<path d="M161.15 183.471V180.742H157.883V183.471H160.878H161.15Z" fill="#3F3D56"/>
<path d="M160.878 185.654H157.883V188.382H161.15V185.654H160.878Z" fill="#3F3D56"/>
<path d="M166.596 180.743H163.328V183.471H166.596V180.743Z" fill="#3F3D56"/>
<path d="M166.596 185.654H163.328V188.382H166.596V185.654Z" fill="#3F3D56"/>
<path d="M144.268 137.631H112.681V144.18H144.268V137.631Z" fill="#3F3D56"/>
<path d="M144.268 150.728H112.681V157.277H144.268V150.728Z" fill="#3F3D56"/>
<path d="M144.268 163.825H112.681V170.374H144.268V163.825Z" fill="#3F3D56"/>
<path d="M144.268 176.922H112.681V183.471H144.268V176.922Z" fill="#3F3D56"/>
<path d="M269.919 136.267L267.197 134.084L282.445 120.441H321.111V132.447L296.06 149.364L269.919 136.267Z" fill="#3F3D56"/>
<path d="M328.161 128.094V120.714H323.027V122.521L321.111 120.441L308.585 134.084L303.684 137.358L296.085 192.996L307.546 204.481H334.182V134.63L328.161 128.094Z" fill="#CCCCCC"/>
<path d="M308.586 134.084H267.196V204.481H308.586V134.084Z" fill="#F2F2F2"/>
<path d="M290.886 187.291H283.262V204.481H290.886V187.291Z" fill="#CCCCCC"/>
<path d="M275.093 192.203V189.474H271.825V192.203H274.821H275.093Z" fill="#3F3D56"/>
<path d="M274.821 194.385H271.825V197.114H275.093V194.385H274.821Z" fill="#3F3D56"/>
<path d="M280.539 189.474H277.271V192.203H280.539V189.474Z" fill="#3F3D56"/>
<path d="M280.539 194.385H277.271V197.114H280.539V194.385Z" fill="#3F3D56"/>
<path d="M297.421 192.203V189.474H294.154V192.203H297.149H297.421Z" fill="#3F3D56"/>
<path d="M297.149 194.385H294.154V197.114H297.421V194.385H297.149Z" fill="#3F3D56"/>
<path d="M302.867 189.474H299.6V192.203H302.867V189.474Z" fill="#3F3D56"/>
<path d="M302.867 194.385H299.6V197.114H302.867V194.385Z" fill="#3F3D56"/>
<path d="M320.294 137.631V134.903H317.027V137.631H320.022H320.294Z" fill="#3F3D56"/>
<path d="M320.022 139.814H317.027V142.543H320.294V139.814H320.022Z" fill="#3F3D56"/>
<path d="M325.74 134.903H322.473V137.631H325.74V134.903Z" fill="#3F3D56"/>
<path d="M325.74 139.814H322.473V142.543H325.74V139.814Z" fill="#3F3D56"/>
<path d="M320.294 152.911V150.182H317.027V152.911H320.022H320.294Z" fill="#3F3D56"/>
<path d="M320.022 155.094H317.027V157.822H320.294V155.094H320.022Z" fill="#3F3D56"/>
<path d="M325.74 150.183H322.473V152.911H325.74V150.183Z" fill="#3F3D56"/>
<path d="M325.74 155.094H322.473V157.822H325.74V155.094Z" fill="#3F3D56"/>
<path d="M320.294 168.191V165.462H317.027V168.191H320.022H320.294Z" fill="#3F3D56"/>
<path d="M320.022 170.374H317.027V173.102H320.294V170.374H320.022Z" fill="#3F3D56"/>
<path d="M325.74 165.463H322.473V168.191H325.74V165.463Z" fill="#3F3D56"/>
<path d="M325.74 170.374H322.473V173.102H325.74V170.374Z" fill="#3F3D56"/>
<path d="M320.294 183.471V180.742H317.027V183.471H320.022H320.294Z" fill="#3F3D56"/>
<path d="M320.022 185.654H317.027V188.382H320.294V185.654H320.022Z" fill="#3F3D56"/>
<path d="M325.74 180.743H322.473V183.471H325.74V180.743Z" fill="#3F3D56"/>
<path d="M325.74 185.654H322.473V188.382H325.74V185.654Z" fill="#3F3D56"/>
<path d="M303.412 137.631H271.825V144.18H303.412V137.631Z" fill="#3F3D56"/>
<path d="M303.412 150.728H271.825V157.277H303.412V150.728Z" fill="#3F3D56"/>
<path d="M303.412 163.825H271.825V170.374H303.412V163.825Z" fill="#3F3D56"/>
<path d="M303.412 176.922H271.825V183.471H303.412V176.922Z" fill="#3F3D56"/>
<path d="M357.192 136.267L354.469 134.084L369.718 120.441H408.384V132.447L383.333 149.364L357.192 136.267Z" fill="#3F3D56"/>
<path d="M415.434 128.094V120.714H410.3V122.521L408.384 120.441L395.858 134.084L390.957 137.358L383.357 192.996L394.818 204.481H421.454V134.63L415.434 128.094Z" fill="#CCCCCC"/>
<path d="M395.858 134.084H354.469V204.481H395.858V134.084Z" fill="#F2F2F2"/>
<path d="M378.159 187.291H370.535V204.481H378.159V187.291Z" fill="#CCCCCC"/>
<path d="M362.366 192.203V189.474H359.098V192.203H362.093H362.366Z" fill="#3F3D56"/>
<path d="M362.093 194.385H359.098V197.114H362.366V194.385H362.093Z" fill="#3F3D56"/>
<path d="M367.812 189.474H364.544V192.203H367.812V189.474Z" fill="#3F3D56"/>
<path d="M367.812 194.385H364.544V197.114H367.812V194.385Z" fill="#3F3D56"/>
<path d="M384.694 192.203V189.474H381.426V192.203H384.422H384.694Z" fill="#3F3D56"/>
<path d="M384.422 194.385H381.426V197.114H384.694V194.385H384.422Z" fill="#3F3D56"/>
<path d="M390.14 189.474H386.872V192.203H390.14V189.474Z" fill="#3F3D56"/>
<path d="M390.14 194.385H386.872V197.114H390.14V194.385Z" fill="#3F3D56"/>
<path d="M407.567 137.631V134.903H404.299V137.631H407.295H407.567Z" fill="#3F3D56"/>
<path d="M407.295 139.814H404.299V142.543H407.567V139.814H407.295Z" fill="#3F3D56"/>
<path d="M413.013 134.903H409.745V137.631H413.013V134.903Z" fill="#3F3D56"/>
<path d="M413.013 139.814H409.745V142.543H413.013V139.814Z" fill="#3F3D56"/>
<path d="M407.567 152.911V150.182H404.299V152.911H407.295H407.567Z" fill="#3F3D56"/>
<path d="M407.295 155.094H404.299V157.822H407.567V155.094H407.295Z" fill="#3F3D56"/>
<path d="M413.013 150.183H409.745V152.911H413.013V150.183Z" fill="#3F3D56"/>
<path d="M413.013 155.094H409.745V157.822H413.013V155.094Z" fill="#3F3D56"/>
<path d="M407.567 168.191V165.462H404.299V168.191H407.295H407.567Z" fill="#3F3D56"/>
<path d="M407.295 170.374H404.299V173.102H407.567V170.374H407.295Z" fill="#3F3D56"/>
<path d="M413.013 165.463H409.745V168.191H413.013V165.463Z" fill="#3F3D56"/>
<path d="M413.013 170.374H409.745V173.102H413.013V170.374Z" fill="#3F3D56"/>
<path d="M407.567 183.471V180.742H404.299V183.471H407.295H407.567Z" fill="#3F3D56"/>
<path d="M407.295 185.654H404.299V188.382H407.567V185.654H407.295Z" fill="#3F3D56"/>
<path d="M413.013 180.743H409.745V183.471H413.013V180.743Z" fill="#3F3D56"/>
<path d="M413.013 185.654H409.745V188.382H413.013V185.654Z" fill="#3F3D56"/>
<path d="M390.685 137.631H359.098V144.18H390.685V137.631Z" fill="#3F3D56"/>
<path d="M390.685 150.728H359.098V157.277H390.685V150.728Z" fill="#3F3D56"/>
<path d="M390.685 163.825H359.098V170.374H390.685V163.825Z" fill="#3F3D56"/>
<path d="M390.685 176.922H359.098V183.471H390.685V176.922Z" fill="#3F3D56"/>
<path d="M449 204.209H0V205H449V204.209Z" fill="#3F3D56"/>
<path d="M100.304 172.948H99.5145V204.209H100.304V172.948Z" fill="#3F3D56"/>
<path d="M107.593 176.931C107.644 187.863 99.9686 196.76 99.9686 196.76C99.9686 196.76 92.2121 187.934 92.1619 177.003C92.1116 166.071 99.7865 157.174 99.7865 157.174C99.7865 157.174 107.543 166 107.593 176.931Z" fill="#0F375A"/>
<path d="M179.284 172.948H178.494V204.209H179.284V172.948Z" fill="#3F3D56"/>
<path d="M186.573 176.931C186.623 187.863 178.948 196.76 178.948 196.76C178.948 196.76 171.192 187.934 171.142 177.003C171.091 166.071 178.766 157.174 178.766 157.174C178.766 157.174 186.523 166 186.573 176.931Z" fill="#0F375A"/>
<path d="M336.849 172.948H336.059V204.209H336.849V172.948Z" fill="#3F3D56"/>
<path d="M344.138 176.931C344.188 187.863 336.513 196.76 336.513 196.76C336.513 196.76 328.757 187.934 328.706 177.003C328.656 166.071 336.331 157.174 336.331 157.174C336.331 157.174 344.087 166 344.138 176.931Z" fill="#0F375A"/>
<path d="M232.003 68.0819C240.291 68.0819 247.009 66.5671 247.009 64.6986C247.009 62.83 240.291 61.3152 232.003 61.3152C223.715 61.3152 216.997 62.83 216.997 64.6986C216.997 66.5671 223.715 68.0819 232.003 68.0819Z" fill="#0F375A"/>
<path d="M224.597 27H231.037C231.037 25.16 232.117 23.96 234.077 23.96C235.837 23.96 236.957 25.08 236.957 26.88C236.997 29.8 234.397 30.48 230.637 30.48H228.237L228.437 37.92H234.437L234.637 34.92C239.877 34.88 243.597 32.08 243.597 26.92C243.597 21.36 239.717 18.36 234.157 18.36C227.837 18.36 224.477 22.2 224.597 27ZM235.557 44.64C235.557 42.52 233.917 40.88 231.517 40.88C229.077 40.88 227.437 42.52 227.437 44.64C227.437 46.68 229.077 48.32 231.517 48.32C233.917 48.32 235.557 46.68 235.557 44.64Z" fill="#0F375A"/>
</svg>
