<svg width="24" height="12" viewBox="0 0 24 12" fill="none" xmlns="http://www.w3.org/2000/svg">
<path d="M23.904 0.6197C23.7823 0.375469 23.5493 0.181387 23.2562 0.0799613C23.112 0.0287451 22.9571 0.00157922 22.8003 0H16.8021C16.4839 0 16.1788 0.105306 15.9538 0.292752C15.7288 0.480198 15.6024 0.734429 15.6024 0.999517C15.6024 1.26461 15.7288 1.51884 15.9538 1.70628C16.1788 1.89373 16.4839 1.99903 16.8021 1.99903H19.9092L13.2031 7.58633L9.25627 4.28793C9.14475 4.19424 9.01207 4.11989 8.86588 4.06914C8.71969 4.0184 8.56289 3.99227 8.40452 3.99227C8.24615 3.99227 8.08935 4.0184 7.94316 4.06914C7.79697 4.11989 7.66429 4.19424 7.55277 4.28793L0.354855 10.285C0.242414 10.3779 0.153166 10.4885 0.0922616 10.6103C0.0313568 10.7321 0 10.8627 0 10.9947C0 11.1266 0.0313568 11.2573 0.0922616 11.3791C0.153166 11.5009 0.242414 11.6114 0.354855 11.7043C0.466378 11.798 0.599061 11.8724 0.74525 11.9231C0.891439 11.9739 1.04824 12 1.20661 12C1.36498 12 1.52178 11.9739 1.66797 11.9231C1.81415 11.8724 1.94684 11.798 2.05836 11.7043L8.40452 6.4069L12.3514 9.70531C12.4629 9.79899 12.5956 9.87335 12.7418 9.9241C12.888 9.97484 13.0448 10.001 13.2031 10.001C13.3615 10.001 13.5183 9.97484 13.6645 9.9241C13.8107 9.87335 13.9434 9.79899 14.0549 9.70531L21.6007 3.40835V5.9971C21.6007 6.26219 21.7271 6.51642 21.9521 6.70387C22.177 6.89131 22.4822 6.99662 22.8003 6.99662C23.1185 6.99662 23.4237 6.89131 23.6486 6.70387C23.8736 6.51642 24 6.26219 24 5.9971V0.999517C23.9981 0.868903 23.9655 0.739865 23.904 0.6197Z" fill="#0D796C"/>
</svg>
